<svg viewBox="0 0 98.67 68.87" xmlns="http://www.w3.org/2000/svg"><path d="m88.58 48.79h-78.68c-.6-.78-1.97-2.54-2.55-3.81h83.87c-.59 1.17-1.66 2.84-2.65 3.81zm-3.23 4.02h-72.22c1.18 1.37 2.45 2.65 3.72 3.53h64.48c1.56-.88 3.03-2.15 4.01-3.53zm-8.92 7.26h-19.8c-.58 3.13-.58 6.07-.58 8.23 5.78-.4 13.42-3.04 20.38-8.23zm-8.23-24.21c-1.56 1.77-2.94 3.53-4.03 5.39h29.01c3.92-7.84 5.97-15.58 5.39-21.95-9.02.58-21.95 6.66-30.38 16.55zm-25.86 32.43c.09-2.16.09-5.09-.3-8.23h-19.99c7.06 5.19 14.7 7.83 20.29 8.23zm13.12-8.23h-12.45c2.06 3.71 4.02 6.66 6.27 8.81 2.06-2.15 4.21-5.1 6.18-8.81zm-20.97-18.81c-1.08-1.86-2.56-3.62-4.02-5.39-8.42-9.9-21.45-15.98-30.37-16.56-.59 6.37 1.37 14.11 5.29 21.95zm27.33 0c.19-2.26.39-4.41.39-6.96 0-13.71-6.17-27.93-12.94-34.29-6.86 6.36-12.93 20.58-12.93 34.29 0 2.55 0 4.7.39 6.96h25.08z" fill="#fff"/></svg>